<?xml version="1.0" encoding="utf-8"?>
<!-- Generator: Adobe Illustrator 22.0.1, SVG Export Plug-In . SVG Version: 6.00 Build 0)  -->
<svg version="1.1" id="Layer_1" xmlns="http://www.w3.org/2000/svg" xmlns:xlink="http://www.w3.org/1999/xlink" x="0px" y="0px"
	 viewBox="0 0 182 183" style="enable-background:new 0 0 182 183;" xml:space="preserve">
<style type="text/css">
	.st0{fill:#FFFFFF;}
	.st1{fill:#C23548;}
</style>
<g>
	<g>
		<path class="st0" d="M178.839,44.664L94.93,0.88C93.858,0.321,92.28,0,90.665,0c-1.614,0-3.174,0.321-4.245,0.88L2.817,44.664
			C1.189,45.514,0,49.095,0,52.179v78.638c0,3.086,1.178,6.668,2.804,7.518l83.779,43.783c1.072,0.56,2.531,0.883,4.137,0.883
			c1.605,0,3.103-0.323,4.175-0.883l83.97-43.783c1.57-0.821,3.134-4.403,3.134-7.518V52.179
			C182,49.067,180.412,45.485,178.839,44.664z"/>
	</g>
</g>
<g>
	<path class="st1" d="M14.956,113.707h6.787V71.213h-6.787v-5.936h23.211c4.55,0,7.942,0.232,11.567,1.31
		c10.411,3.24,17.197,12.648,17.197,25.912c0,13.186-6.553,22.367-17.197,25.758c-3.548,1.158-7.172,1.466-11.491,1.466H14.956
		V113.707z M37.782,113.398c3.547,0,6.478-0.309,9.254-1.389c7.326-2.543,11.876-9.562,11.876-19.511
		c0-10.024-4.55-17.042-11.799-19.664c-3.008-1.082-5.784-1.235-9.332-1.235h-8.329v41.799H37.782z"/>
	<path class="st1" d="M69.258,71.213h-5.32v-5.936h19.434v5.936h-6.015l12.186,35.86c0.615,1.93,0.924,4.241,0.924,4.241h0.232
		c0,0,0.309-2.311,0.925-4.241l12.183-35.86h-6.014v-5.936h19.432v5.936h-5.398l-17.195,48.51h-8.174L69.258,71.213z"/>
	<path class="st1" d="M132.963,113.707h6.865V71.599h-12.802v8.484h-6.709V65.277h46.727v14.806h-6.703v-8.484H147.54v42.108h6.863
		v6.016h-21.439V113.707z"/>
</g>
</svg>
